<?xml version="1.0" encoding="UTF-8" standalone="no" ?>
<!DOCTYPE svg PUBLIC "-//W3C//DTD SVG 1.1//EN" "http://www.w3.org/Graphics/SVG/1.1/DTD/svg11.dtd">
<svg xmlns="http://www.w3.org/2000/svg" xmlns:xlink="http://www.w3.org/1999/xlink" version="1.1" width="1080" height="1080" viewBox="0 0 1080 1080" xml:space="preserve">
<desc>Created with Fabric.js 5.2.4</desc>
<defs>
</defs>
<rect x="0" y="0" width="100%" height="100%" fill="transparent"></rect>
<g transform="matrix(1 0 0 1 540 540)" id="94c96fd3-dea5-41c3-a080-f60d6aea6e77"  >
</g>
<g transform="matrix(1 0 0 1 540 540)" id="88a3b81c-32d4-4c6f-b549-5c2ec31f1f0b"  >
<rect style="stroke: none; stroke-width: 1; stroke-dasharray: none; stroke-linecap: butt; stroke-dashoffset: 0; stroke-linejoin: miter; stroke-miterlimit: 4; fill: rgb(255,255,255); fill-rule: nonzero; opacity: 1; visibility: hidden;" vector-effect="non-scaling-stroke"  x="-540" y="-540" rx="0" ry="0" width="1080" height="1080" />
</g>
<g transform="matrix(8.92 0 0 8.92 540.42 308.01)"  >
<path style="stroke: rgb(138,209,192); stroke-width: 2; stroke-dasharray: none; stroke-linecap: butt; stroke-dashoffset: 0; stroke-linejoin: miter; stroke-miterlimit: 4; fill: none; fill-rule: nonzero; opacity: 1;" vector-effect="non-scaling-stroke"  transform=" translate(-162.5, -91.19)" d="M 171.61 91.19 C 171.61 88.77387777756175 170.65019918427106 86.45671363105214 168.94174277660946 84.74825722339054 C 167.23328636894786 83.03980081572895 164.91612222243825 82.08 162.5 82.08 C 160.08387777756175 82.08 157.76671363105214 83.03980081572895 156.05825722339054 84.74825722339054 C 154.34980081572894 86.45671363105214 153.39 88.77387777756175 153.39 91.19 C 153.39 93.60612222243824 154.34980081572894 95.92328636894786 156.05825722339054 97.63174277660946 C 157.76671363105214 99.34019918427104 160.08387777756175 100.3 162.5 100.3 C 164.91612222243825 100.3 167.23328636894786 99.34019918427104 168.94174277660946 97.63174277660946 C 170.65019918427106 95.92328636894786 171.61 93.60612222243824 171.61 91.19" stroke-linecap="round" />
</g>
<g transform="matrix(8.92 0 0 8.92 333.14 421.14)"  >
<path style="stroke: rgb(133,181,174); stroke-width: 2; stroke-dasharray: none; stroke-linecap: butt; stroke-dashoffset: 0; stroke-linejoin: miter; stroke-miterlimit: 4; fill: none; fill-rule: nonzero; opacity: 1;" vector-effect="non-scaling-stroke"  transform=" translate(-139.32, -103.81)" d="M 143.25 101.96 Q 138.84 102.80999999999999 135.39 105.66" stroke-linecap="round" />
</g>
<g transform="matrix(8.92 0 0 8.92 384.64 645.53)"  >
<path style="stroke: rgb(138,209,192); stroke-width: 2; stroke-dasharray: none; stroke-linecap: butt; stroke-dashoffset: 0; stroke-linejoin: miter; stroke-miterlimit: 4; fill: none; fill-rule: nonzero; opacity: 1;" vector-effect="non-scaling-stroke"  transform=" translate(-145.12, -128.95)" d="M 135.39 105.66 C 121.37999999999998 120.00999999999999 129.67999999999998 148.68 149.89999999999998 152.04 C 155.86999999999998 153.03 162.54999999999998 150.20999999999998 161.73999999999998 143.35999999999999 C 160.68999999999997 134.57999999999998 150.33999999999997 128.82 141.90999999999997 124.10999999999999 Q 141.18999999999997 123.69999999999999 139.53999999999996 121.24999999999999" stroke-linecap="round" />
</g>
<g transform="matrix(8.92 0 0 8.92 389.1 528.51)"  >
<path style="stroke: rgb(133,181,174); stroke-width: 2; stroke-dasharray: none; stroke-linecap: butt; stroke-dashoffset: 0; stroke-linejoin: miter; stroke-miterlimit: 4; fill: none; fill-rule: nonzero; opacity: 1;" vector-effect="non-scaling-stroke"  transform=" translate(-145.58, -115.82)" d="M 139.54 121.25 C 134.12 112.05 148.20999999999998 104.86 152.85 116.21" stroke-linecap="round" />
</g>
<g transform="matrix(8.92 0 0 8.92 544.68 588.87)"  >
<path style="stroke: rgb(138,209,192); stroke-width: 2; stroke-dasharray: none; stroke-linecap: butt; stroke-dashoffset: 0; stroke-linejoin: miter; stroke-miterlimit: 4; fill: none; fill-rule: nonzero; opacity: 1;" vector-effect="non-scaling-stroke"  transform=" translate(-162.98, -122.57)" d="M 152.85 116.21 Q 152.9 118.24 152.97 120.19999999999999 C 153.51 135.25 172.45 134.39 172.05 119.71 C 171.99 117.53999999999999 172.75 116.05 173.10000000000002 114.03" stroke-linecap="round" />
</g>
<g transform="matrix(8.92 0 0 8.92 696.24 528.51)"  >
<path style="stroke: rgb(133,181,174); stroke-width: 2; stroke-dasharray: none; stroke-linecap: butt; stroke-dashoffset: 0; stroke-linejoin: miter; stroke-miterlimit: 4; fill: none; fill-rule: nonzero; opacity: 1;" vector-effect="non-scaling-stroke"  transform=" translate(-179.9, -115.82)" d="M 173.1 114.03 C 178.54999999999998 106.05 189.87 112.12 185.85999999999999 121.31" stroke-linecap="round" />
</g>
<g transform="matrix(8.92 0 0 8.92 707.95 646.97)"  >
<path style="stroke: rgb(138,209,192); stroke-width: 2; stroke-dasharray: none; stroke-linecap: butt; stroke-dashoffset: 0; stroke-linejoin: miter; stroke-miterlimit: 4; fill: none; fill-rule: nonzero; opacity: 1;" vector-effect="non-scaling-stroke"  transform=" translate(-181.24, -129.11)" d="M 185.86 121.31 C 179.31 127.2 171.27 129.86 165.9 137.13 C 157.44 148.6 169.82 155.35999999999999 179.79000000000002 150.73 Q 188.47000000000003 146.69 192.94000000000003 138.22 Q 201.99000000000004 121.06 190.02000000000004 106.02" stroke-linecap="round" />
</g>
<g transform="matrix(8.92 0 0 8.92 743.31 421.83)"  >
<path style="stroke: rgb(133,181,174); stroke-width: 2; stroke-dasharray: none; stroke-linecap: butt; stroke-dashoffset: 0; stroke-linejoin: miter; stroke-miterlimit: 4; fill: none; fill-rule: nonzero; opacity: 1;" vector-effect="non-scaling-stroke"  transform=" translate(-185.16, -103.88)" d="M 190.02 106.02 Q 186.02 102.45 180.29000000000002 101.75" stroke-linecap="round" />
</g>
<g transform="matrix(8.92 0 0 8.92 533.6 423.12)"  >
<path style="stroke: rgb(138,209,192); stroke-width: 2; stroke-dasharray: none; stroke-linecap: butt; stroke-dashoffset: 0; stroke-linejoin: miter; stroke-miterlimit: 4; fill: none; fill-rule: nonzero; opacity: 1;" vector-effect="non-scaling-stroke"  transform=" translate(-161.77, -104.03)" d="M 180.29 101.75 Q 170.45999999999998 100.7 162.66 106.85 C 162.43021282993965 107.03113691396057 162.10506787130637 107.02696838884988 161.88 106.83999999999999 C 157.76 103.39999999999999 148.42 99.24999999999999 143.25 101.96" stroke-linecap="round" />
</g>
<g transform="matrix(8.92 0 0 8.92 539.24 490.3)"  >
<path style="stroke: rgb(15,135,110); stroke-width: 2; stroke-dasharray: none; stroke-linecap: butt; stroke-dashoffset: 0; stroke-linejoin: miter; stroke-miterlimit: 4; fill: none; fill-rule: nonzero; opacity: 1;" vector-effect="non-scaling-stroke"  transform=" translate(-162.43, -111.56)" d="M 180.29 101.75 L 180.23999999999998 102.04 C 180.21445333116827 102.19908104429129 180.1238854711532 102.3403669059148 179.98999999999998 102.43 Q 173.77999999999997 106.5 173.1 114.03 M 152.85 116.21000000000001 Q 152.12 109.31 147.57 104.24000000000001 C 146.48 103.02000000000001 144.72 102.65 143.25 101.96000000000001 M 190.02 106.02000000000001 Q 191.11 115.04 185.86 121.31 M 139.54000000000002 121.25 L 139.3 121.35 C 139.15696139052932 121.40481706442499 138.9948954600309 121.36024893353793 138.9 121.24 Q 133.53 114.57 135.39000000000001 105.66" stroke-linecap="round" />
</g>
<g transform="matrix(8.92 0 0 8.92 538.78 613.34)"  >
<path style="stroke: rgb(138,209,192); stroke-width: 2; stroke-dasharray: none; stroke-linecap: butt; stroke-dashoffset: 0; stroke-linejoin: miter; stroke-miterlimit: 4; fill: none; fill-rule: nonzero; opacity: 1;" vector-effect="non-scaling-stroke"  transform=" translate(-162.48, -125.31)" d="M 121.82 125.31 C 121.82 122.89122561266336 120.85914561586738 120.57151792702476 119.14881384442131 118.86118615557868 C 117.43848207297523 117.1508543841326 115.11877438733663 116.19 112.69999999999999 116.19 C 110.28122561266335 116.19 107.96151792702474 117.15085438413261 106.25118615557867 118.8611861555787 C 104.54085438413259 120.57151792702477 103.57999999999998 122.89122561266336 103.57999999999998 125.31 C 103.57999999999998 127.72877438733664 104.5408543841326 130.04848207297525 106.25118615557867 131.75881384442133 C 107.96151792702474 133.4691456158674 110.28122561266335 134.43 112.69999999999999 134.43 C 115.11877438733663 134.43 117.43848207297523 133.4691456158674 119.14881384442131 131.75881384442133 C 120.85914561586739 130.04848207297525 121.82 127.72877438733664 121.82 125.31 M 221.38 125.28 C 221.38 122.86918210735854 220.42230632107834 120.55710503910692 218.71760064098572 118.85239935901429 C 217.01289496089308 117.14769367892164 214.70081789264145 116.19 212.29 116.19 C 209.87918210735853 116.19 207.5671050391069 117.14769367892164 205.86239935901426 118.85239935901429 C 204.15769367892165 120.55710503910692 203.2 122.86918210735855 203.2 125.28 C 203.2 127.69081789264146 204.15769367892165 130.0028949608931 205.86239935901426 131.70760064098573 C 207.5671050391069 133.41230632107835 209.87918210735853 134.37 212.29 134.37 C 214.70081789264145 134.37 217.01289496089308 133.41230632107835 218.71760064098572 131.70760064098573 C 220.42230632107834 130.0028949608931 221.38 127.69081789264146 221.38 125.28" stroke-linecap="round" />
</g>
<g transform="matrix(8.92 0 0 8.92 540.42 308.01)"  >
<circle style="stroke: none; stroke-width: 1; stroke-dasharray: none; stroke-linecap: butt; stroke-dashoffset: 0; stroke-linejoin: miter; stroke-miterlimit: 4; fill: rgb(20,163,128); fill-rule: nonzero; opacity: 1;" vector-effect="non-scaling-stroke"  cx="0" cy="0" r="9.11" />
</g>
<g transform="matrix(8.92 0 0 8.92 533.6 530.72)"  >
<path style="stroke: none; stroke-width: 1; stroke-dasharray: none; stroke-linecap: butt; stroke-dashoffset: 0; stroke-linejoin: miter; stroke-miterlimit: 4; fill: rgb(20,163,128); fill-rule: nonzero; opacity: 1;" vector-effect="non-scaling-stroke"  transform=" translate(-161.77, -116.1)" d="M 180.29 101.75 L 180.23999999999998 102.04 C 180.21445333116827 102.19908104429129 180.1238854711532 102.3403669059148 179.98999999999998 102.43 Q 173.77999999999997 106.5 173.1 114.03 C 172.75 116.05 171.98999999999998 117.54 172.04999999999998 119.71000000000001 C 172.45 134.39000000000001 153.51 135.25 152.96999999999997 120.2 Q 152.89999999999998 118.24000000000001 152.84999999999997 116.21000000000001 Q 152.11999999999998 109.31 147.56999999999996 104.24000000000001 C 146.47999999999996 103.02000000000001 144.71999999999997 102.65 143.24999999999997 101.96000000000001 C 148.41999999999996 99.25000000000001 157.75999999999996 103.4 161.87999999999997 106.84 C 162.10506787130635 107.0269683888499 162.43021282993962 107.03113691396058 162.65999999999997 106.85000000000001 Q 170.45999999999998 100.7 180.28999999999996 101.75000000000001 Z" stroke-linecap="round" />
</g>
<g transform="matrix(8.92 0 0 8.92 539.24 490.3)"  >
<path style="stroke: none; stroke-width: 1; stroke-dasharray: none; stroke-linecap: butt; stroke-dashoffset: 0; stroke-linejoin: miter; stroke-miterlimit: 4; fill: rgb(10,106,92); fill-rule: nonzero; opacity: 1;" vector-effect="non-scaling-stroke"  transform=" translate(-162.43, -111.56)" d="M 180.29 101.75 Q 186.01999999999998 102.45 190.01999999999998 106.02 Q 191.10999999999999 115.03999999999999 185.85999999999999 121.31 C 189.86999999999998 112.12 178.54999999999998 106.05 173.1 114.03 Q 173.78 106.5 179.98999999999998 102.43 C 180.1238854711532 102.3403669059148 180.21445333116827 102.19908104429129 180.23999999999998 102.04 L 180.29 101.75 Z M 143.25 101.96 C 144.72 102.64999999999999 146.48 103.02 147.57 104.24 Q 152.12 109.31 152.85 116.21 C 148.21 104.86 134.12 112.05 139.54 121.25 L 139.29999999999998 121.35 C 139.1569613905293 121.40481706442499 138.99489546003088 121.36024893353793 138.89999999999998 121.24 Q 133.52999999999997 114.57 135.39 105.66 Q 138.83999999999997 102.81 143.25 101.96 Z" stroke-linecap="round" />
</g>
<g transform="matrix(8.92 0 0 8.92 384.64 645.54)"  >
<path style="stroke: none; stroke-width: 1; stroke-dasharray: none; stroke-linecap: butt; stroke-dashoffset: 0; stroke-linejoin: miter; stroke-miterlimit: 4; fill: rgb(20,163,128); fill-rule: nonzero; opacity: 1;" vector-effect="non-scaling-stroke"  transform=" translate(-145.12, -128.95)" d="M 135.39 105.66 Q 133.52999999999997 114.57 138.89999999999998 121.24 C 138.99489546003088 121.36024893353793 139.1569613905293 121.40481706442499 139.29999999999998 121.35 L 139.54 121.25 Q 141.19 123.7 141.91 124.11 C 150.34 128.82 160.69 134.58 161.74 143.36 C 162.55 150.21 155.87 153.03 149.9 152.04000000000002 C 129.68 148.68 121.38000000000001 120.01000000000002 135.39000000000001 105.66000000000003 Z" stroke-linecap="round" />
</g>
<g transform="matrix(8.92 0 0 8.92 707.95 646.97)"  >
<path style="stroke: none; stroke-width: 1; stroke-dasharray: none; stroke-linecap: butt; stroke-dashoffset: 0; stroke-linejoin: miter; stroke-miterlimit: 4; fill: rgb(20,163,128); fill-rule: nonzero; opacity: 1;" vector-effect="non-scaling-stroke"  transform=" translate(-181.24, -129.11)" d="M 190.02 106.02 Q 201.99 121.06 192.94 138.22 Q 188.47 146.69 179.79 150.73 C 169.82 155.35999999999999 157.44 148.6 165.89999999999998 137.13 C 171.26999999999998 129.85999999999999 179.30999999999997 127.19999999999999 185.85999999999999 121.31 Q 191.10999999999999 115.04 190.01999999999998 106.02000000000001 Z" stroke-linecap="round" />
</g>
<g transform="matrix(8.92 0 0 8.92 94.74 613.34)"  >
<circle style="stroke: none; stroke-width: 1; stroke-dasharray: none; stroke-linecap: butt; stroke-dashoffset: 0; stroke-linejoin: miter; stroke-miterlimit: 4; fill: rgb(20,163,128); fill-rule: nonzero; opacity: 1;" vector-effect="non-scaling-stroke"  cx="0" cy="0" r="9.12" />
</g>
<g transform="matrix(8.92 0 0 8.92 986.03 613.07)"  >
<circle style="stroke: none; stroke-width: 1; stroke-dasharray: none; stroke-linecap: butt; stroke-dashoffset: 0; stroke-linejoin: miter; stroke-miterlimit: 4; fill: rgb(20,163,128); fill-rule: nonzero; opacity: 1;" vector-effect="non-scaling-stroke"  cx="0" cy="0" r="9.09" />
</g>
</svg>